<svg xmlns="http://www.w3.org/2000/svg" width="10" height="11" viewBox="0 0 10 11" fill="none">
  <path d="M8.33126 3.28667C8.70477 3.06337 8.98425 2.71177 9.11751 2.2975C8.76653 2.50575 8.38252 2.65245 7.98209 2.73125C7.42692 2.14397 6.5473 2.00105 5.83476 2.38236C5.12221 2.76366 4.75313 3.57479 4.93376 4.3625C3.49609 4.29032 2.15666 3.61122 1.24876 2.49417C0.77494 3.31143 1.01707 4.35616 1.80209 4.88167C1.51822 4.87254 1.24064 4.79568 0.992506 4.6575C0.992506 4.665 0.992506 4.6725 0.992506 4.68C0.992671 5.53131 1.59266 6.26462 2.42709 6.43333C2.16378 6.50497 1.88759 6.51552 1.61959 6.46417C1.85426 7.1922 2.52524 7.69095 3.29001 7.70583C2.6566 8.20297 1.87437 8.47257 1.06917 8.47125C0.926453 8.47146 0.783844 8.46325 0.64209 8.44667C1.45975 8.9721 2.41141 9.25098 3.38334 9.25C4.73553 9.25929 6.03502 8.72621 6.99114 7.77001C7.94727 6.81381 8.48024 5.51427 8.47084 4.16208C8.47084 4.08458 8.46903 4.0075 8.46542 3.93083C8.81561 3.67775 9.11784 3.36423 9.35792 3.005C9.03168 3.14961 8.68562 3.24455 8.33126 3.28667Z" fill="white"/>
</svg>