<svg width="6" height="8" viewBox="0 0 6 8" fill="none" xmlns="http://www.w3.org/2000/svg">
<path d="M2.99998 7.75C2.4737 7.3011 1.98589 6.80897 1.54165 6.27875C0.87498 5.4825 0.0833134 4.29667 0.0833134 3.16667C0.0827225 1.98648 0.793416 0.922248 1.88376 0.470584C2.9741 0.0189204 4.22917 0.268852 5.06331 1.10375C5.61184 1.64984 5.91911 2.39266 5.91666 3.16667C5.91666 4.29667 5.12498 5.4825 4.45831 6.27875C4.01407 6.80897 3.52626 7.3011 2.99998 7.75ZM2.99998 1.91667C2.5534 1.91667 2.14074 2.15492 1.91745 2.54167C1.69416 2.92842 1.69416 3.40492 1.91745 3.79167C2.14074 4.17842 2.5534 4.41667 2.99998 4.41667C3.69034 4.41667 4.24998 3.85702 4.24998 3.16667C4.24998 2.47631 3.69034 1.91667 2.99998 1.91667Z" fill="#79819A"/>
</svg>
