<svg width="8" height="9" viewBox="0 0 8 9" fill="none" xmlns="http://www.w3.org/2000/svg">
<path d="M2.52709 8.05626C1.68452 8.05626 0.924916 7.54872 0.602426 6.77031C0.279935 5.9919 0.458063 5.09588 1.05376 4.5L1.93793 3.61583L2.52709 4.205L1.64334 5.08875C1.32753 5.40456 1.2042 5.86486 1.31979 6.29626C1.43538 6.72766 1.77235 7.06463 2.20375 7.18022C2.63515 7.29581 3.09545 7.17248 3.41126 6.85667L4.29501 5.97292L4.88418 6.5625L4.00043 7.44625C3.61046 7.83814 3.07995 8.05778 2.52709 8.05626ZM2.82168 6.2675L2.23251 5.67833L5.17876 2.73208L5.76793 3.32125L2.82209 6.26708L2.82168 6.2675ZM6.06293 5.38375L5.47334 4.79458L6.35709 3.91083C6.6772 3.59597 6.80384 3.13361 6.68886 2.69958C6.57388 2.26554 6.23494 1.92652 5.80093 1.81144C5.36692 1.69635 4.90453 1.82288 4.58959 2.14292L3.70543 3.02667L3.11626 2.4375L4.00043 1.55333C4.81504 0.74582 6.12917 0.748698 6.94024 1.55977C7.75131 2.37085 7.75419 3.68497 6.94668 4.49958L6.06293 5.38333V5.38375Z" fill="#79819A"/>
</svg>
