<svg xmlns="http://www.w3.org/2000/svg" width="70" height="64" viewBox="0 0 80 64" fill="none">
<path fill-rule="evenodd" clip-rule="evenodd" d="M0.440551 11.525C0.771965 11.156 1.24723 10.9449 1.74635 10.9449H12.8793C13.8031 10.9449 14.5671 11.6562 14.6225 12.568L15.3112 23.4427C15.3432 23.9695 15.0958 24.3975 14.6978 24.7492C14.2997 25.1008 13.7947 25.3375 13.2688 25.247C4.36252 23.7158 0.453009 16.5357 0.0122541 12.8754C-0.0467481 12.3855 0.109137 11.8939 0.440551 11.525Z" fill="url(#paint0_linear_476_352)"/>
<path fill-rule="evenodd" clip-rule="evenodd" d="M17.9837 2.12736C21.726 0.950198 26.2325 1.88195 29.9254 6.50645C29.9593 6.54891 29.9911 6.59292 30.0209 6.63833C31.1996 8.43917 32.2124 10.5637 33.1352 12.4994C33.2134 12.6635 33.2909 12.8262 33.3679 12.9872C34.3923 15.1308 35.2949 16.9418 36.2623 18.1681C37.1326 19.2715 37.5579 19.7017 38.3591 20.0537C39.297 20.4659 40.8165 20.7896 43.9738 21.176C58.9178 21.7049 64.7503 20.0111 67.4321 18.4665C68.5468 17.8245 69.1489 17.2019 69.7744 16.555C69.8891 16.4364 70.0046 16.3171 70.1241 16.1966C70.505 15.8127 70.9926 15.3542 71.6424 15.0143C72.3267 14.6563 73.084 14.4821 73.9595 14.4821C74.8058 14.4821 75.5303 15.082 75.6788 15.9057C78.8991 33.7692 73.93 45.5583 69.8595 50.5295C65.1937 56.2275 58.7934 58.9571 53.6779 60.2717C51.1084 60.932 48.8248 61.2456 47.1795 61.3945C46.3557 61.4691 45.6886 61.5027 45.2217 61.5176C44.9882 61.525 44.8044 61.5278 44.6759 61.5286C44.6255 61.529 44.5836 61.529 44.5504 61.5289C35.4951 62.1997 28.2373 57.8926 23.1998 52.6868C18.2322 47.5534 15.1804 41.2993 14.6124 37.462C10.3193 19.3902 11.1739 10.7985 11.3093 9.43738C11.3124 9.40604 11.3152 9.37854 11.3175 9.35484C11.472 7.75085 12.3107 6.2132 13.4548 4.98192C14.6128 3.73552 16.1798 2.69482 17.9837 2.12736Z" fill="url(#paint1_linear_476_352)"/>
<defs>
<linearGradient id="paint0_linear_476_352" x1="17.015" y1="15.3781" x2="106.153" y2="86.2317" gradientUnits="userSpaceOnUse">
<stop stop-color="#2584F2"/>
<stop offset="0.864583" stop-color="#00FE9A" stop-opacity="0.42"/>
<stop offset="0.973958" stop-color="#15C2DE"/>
</linearGradient>
<linearGradient id="paint1_linear_476_352" x1="17.015" y1="15.3781" x2="106.153" y2="86.2317" gradientUnits="userSpaceOnUse">
<stop stop-color="#2584F2"/>
<stop offset="0.864583" stop-color="#00FE9A" stop-opacity="0.42"/>
<stop offset="0.973958" stop-color="#15C2DE"/>
</linearGradient>
</defs>
</svg>